# xmcd
#
# Track frame offsets: 
#        150
#        27439
#        54605
#        85130
#        105251
#        120359
#        147432
#        169055
#        187752
#        204927
#
# Disc length: 3073 seconds
#
# Revision: 0
# Processed by: cddbd v1.5.2PL0 Copyright (c) Steve Scherf et al.
# Submitted via: ExactAudioCopy v1.0b3
#
DISCID=780bff0a
DTITLE=Thanh Tuyen, My Huyen - May Nhip Cau Tre
DYEAR=1993
DGENRE=
TTITLE0=Thanh Tuyen - Ngay sau se ra sao
TTITLE1=My Huyen, Chung Tu Luu - May nhip cau tre
TTITLE2=Thanh Tuyen - Duong xua loi cu
TTITLE3=My Huyen - Goi ve anh 2
TTITLE4=Thanh Tuyen - Dem dai chien tuyen
TTITLE5=My Huyen, Chung Tu Luu - Da ta
TTITLE6=Thanh Tuyen - Chuyen hen ho
TTITLE7=My Huyen - Mua mua qua mau
TTITLE8=Thanh Tuyen - Tango cho em
TTITLE9=My Huyen - Chua dat ten cho mot chuyen tinh
EXTD=
EXTT0=
EXTT1=
EXTT2=
EXTT3=
EXTT4=
EXTT5=
EXTT6=
EXTT7=
EXTT8=
EXTT9=
PLAYORDER=
